<?xml version="1.0" encoding="utf-8"?>
<!-- Generator: Adobe Illustrator 16.2.0, SVG Export Plug-In . SVG Version: 6.00 Build 0)  -->
<!DOCTYPE svg PUBLIC "-//W3C//DTD SVG 1.1//EN" "http://www.w3.org/Graphics/SVG/1.1/DTD/svg11.dtd">
<svg version="1.1" id="Layer_1" xmlns="http://www.w3.org/2000/svg" xmlns:xlink="http://www.w3.org/1999/xlink" x="0px" y="0px"
	 width="725.669px" height="725.669px" viewBox="0 0 725.669 725.669" enable-background="new 0 0 725.669 725.669"
	 xml:space="preserve">
<g>
	<path fill-rule="evenodd" clip-rule="evenodd" fill="#13235B" d="M285.108,108.126c-1.72,0.807-3.27,1.849-4.97,2.271
		c-3.551,0.886-7.3-1.399-8.485-4.861c-0.526-1.536-0.075-2.195,1.597-2.212c2.75-0.025,5.499-0.008,8.247-0.016
		c0.554,0,1.104-0.045,1.842-0.076c-0.144-0.719-0.241-1.301-0.373-1.876c-5.098-22.402,11.115-44.219,34.013-45.767
		c16.73-1.128,31.771,8.439,37.851,24.103c0.326,0.832,0.702,1.415,1.645,1.783c2.444,0.954,3,3.771,1.369,5.825
		c-0.422,0.533-0.722,1.318-0.726,1.987c-0.017,2.593,0.155,5.186,0.168,7.782c0.013,2.257-1.302,3.738-3.271,3.861
		c-2.095,0.122-3.516-1.202-3.77-3.508c-0.016-0.145-0.071-0.289-0.135-0.535c-0.52-0.022-1.046-0.047-1.909-0.088
		c1.439-2.421,2.774-4.666,4.105-6.917c0.096,0.037,0.188,0.068,0.28,0.105c0,1.937,0.003,3.872-0.001,5.812
		c0,0.559-0.203,1.192,0.004,1.649c0.21,0.46,0.774,0.938,1.253,1.021c0.27,0.056,0.978-0.661,0.982-1.041
		c0.044-2.646-0.005-5.293-0.136-7.935c-0.019-0.421-0.505-0.966-0.919-1.191c-2.521-1.392-3.049-3.687-1.427-5.994
		c0.315-0.451,0.389-1.338,0.171-1.858c-5.419-12.907-15.009-20.7-28.948-22.312c-18.366-2.118-34.576,9.881-38.438,27.962
		c-1.091,5.114-0.778,10.203,0.261,15.3c0.3,1.472,0.891,1.952,2.418,1.947c16.193-0.057,32.384-0.034,48.575-0.034
		c5.649,0,11.305-0.006,16.957,0.002c2.015,0.004,2.412,0.554,1.786,2.389c-4.691,13.734-17.899,23.864-32.43,24.867
		c-16.138,1.116-30.275-7.163-37.23-21.792C285.318,108.468,285.137,108.175,285.108,108.126z M286.696,105.724
		c4.911,11.389,12.917,18.688,24.566,21.56c11.471,2.827,21.835,0.171,31.146-7.2c-0.342-0.539-0.573-0.922-0.822-1.297
		c-2.352-3.485-4.231-7.213-5.236-11.304c-0.351-1.438-0.991-1.794-2.396-1.79c-15.07,0.049-30.144,0.031-45.217,0.031
		C288.189,105.724,287.639,105.724,286.696,105.724z M338.35,105.854c1.186,4.621,3.039,8.694,5.93,12.501
		c0.751-0.848,1.336-1.505,2.117-2.387c-0.822-0.708-1.641-1.212-2.16-1.931c-0.289-0.398-0.08-1.152-0.094-1.744
		c0.59,0.053,1.278-0.069,1.737,0.201c0.704,0.415,1.248,1.103,2.125,1.92c1.617-2.912,3.098-5.578,4.754-8.561
		C347.718,105.854,343.186,105.854,338.35,105.854z M283.111,105.833c-3.001,0-5.647,0-8.597,0c1.147,1.661,2.518,2.324,4.208,2.346
		C280.471,108.205,281.916,107.575,283.111,105.833z M356.866,84.927c-0.771-0.634-1.283-1.354-1.662-1.291
		c-0.519,0.09-0.939,0.771-1.403,1.2c0.412,0.421,0.792,1.129,1.256,1.191C355.496,86.089,356.027,85.469,356.866,84.927z"/>
	<path fill-rule="evenodd" clip-rule="evenodd" fill="#13235B" d="M321.014,61.974c-9.569,0.102-16.598,2.861-22.563,8.323
		c-0.074,0.066-0.147,0.143-0.221,0.214c-0.683,0.62-1.412,1.462-2.312,0.469c-0.813-0.904,0-1.575,0.633-2.175
		c5.069-4.795,11.055-7.754,17.943-8.813c14.066-2.165,27.871,4.722,34.625,17.226c0.216,0.402,0.571,0.827,0.56,1.234
		c-0.017,0.52-0.205,1.216-0.576,1.49c-0.246,0.181-0.986-0.162-1.419-0.419c-0.264-0.159-0.358-0.594-0.533-0.907
		C341.094,67.841,331.837,62.396,321.014,61.974z"/>
	<path fill-rule="evenodd" clip-rule="evenodd" fill="#13235B" d="M319.874,126.664c-12.552-0.427-22.028-5.657-28.729-15.868
		c-0.141-0.212-0.386-0.443-0.372-0.651c0.037-0.624,0.182-1.244,0.284-1.866c0.562,0.199,1.287,0.239,1.649,0.62
		c0.688,0.733,1.143,1.68,1.742,2.5c8.205,11.226,22.526,15.642,35.65,11.031c0.895-0.313,2.08-1.191,2.642,0.202
		c0.615,1.522-0.921,1.708-1.849,2.001c-1.891,0.594-3.811,1.143-5.755,1.494C323.292,126.46,321.398,126.515,319.874,126.664z"/>
	<path fill-rule="evenodd" clip-rule="evenodd" fill="#13235B" d="M322.793,122.544c-2.657-0.18-5.097-1.434-6.478-4.265
		c-1.403-2.873-1.055-5.636,0.901-8.156c1.127-1.449,1.934-1.377,2.875,0.23c1.72,2.936,3.416,5.891,5.11,8.845
		C326.601,121.639,326.07,122.517,322.793,122.544z M322.85,119.935c-1.305-2.275-2.509-4.386-3.727-6.492
		c-0.14-0.242-0.345-0.451-0.535-0.689C316.668,115.056,318.926,120.091,322.85,119.935z"/>
	<path fill-rule="evenodd" clip-rule="evenodd" fill="#13235B" d="M342.128,110.576c-0.427-0.579-1.113-1.11-1.222-1.741
		c-0.167-0.966,0.504-1.618,1.54-1.608c0.957,0.013,1.611,0.606,1.455,1.532c-0.11,0.644-0.711,1.205-1.093,1.803
		C342.58,110.568,342.355,110.57,342.128,110.576z"/>
	<path fill-rule="evenodd" clip-rule="evenodd" fill="#13235B" d="M437.466,108.78c-6.953,14.629-21.095,22.908-37.232,21.792
		c-14.528-1.003-27.738-11.133-32.428-24.867c-0.627-1.835-0.227-2.385,1.787-2.389c5.651-0.008,11.305-0.002,16.954-0.002
		c16.193,0,32.383-0.022,48.574,0.034c1.529,0.005,2.119-0.476,2.421-1.947c1.039-5.097,1.351-10.186,0.256-15.3
		c-3.859-18.081-20.068-30.08-38.432-27.962c-13.942,1.611-23.529,9.404-28.949,22.312c-0.219,0.521-0.146,1.407,0.169,1.858
		c1.62,2.308,1.097,4.603-1.428,5.994c-0.413,0.226-0.898,0.771-0.919,1.191c-0.127,2.642-0.177,5.289-0.135,7.935
		c0.008,0.38,0.713,1.097,0.985,1.041c0.479-0.082,1.042-0.561,1.251-1.021c0.207-0.457,0.005-1.091,0.003-1.649
		c-0.004-1.939,0-3.875,0-5.812c0.091-0.037,0.185-0.068,0.278-0.105c1.335,2.251,2.668,4.496,4.105,6.917
		c-0.859,0.041-1.389,0.065-1.907,0.088c-0.063,0.246-0.12,0.391-0.136,0.535c-0.254,2.306-1.675,3.63-3.766,3.508
		c-1.973-0.123-3.287-1.604-3.274-3.861c0.015-2.597,0.187-5.189,0.17-7.782c-0.003-0.669-0.306-1.454-0.726-1.987
		c-1.633-2.055-1.077-4.871,1.367-5.825c0.944-0.368,1.32-0.951,1.646-1.783c6.079-15.663,21.12-25.23,37.851-24.103
		c22.896,1.548,39.111,23.364,34.012,45.767c-0.13,0.575-0.231,1.157-0.371,1.876c0.738,0.031,1.289,0.076,1.84,0.076
		c2.749,0.008,5.5-0.01,8.249,0.016c1.671,0.017,2.121,0.676,1.595,2.212c-1.184,3.462-4.934,5.747-8.485,4.861
		c-1.7-0.422-3.248-1.464-4.968-2.271C437.794,108.175,437.614,108.468,437.466,108.78z M434.192,105.724
		c-15.07,0-30.145,0.018-45.217-0.031c-1.404-0.004-2.044,0.352-2.396,1.79c-1.006,4.091-2.885,7.818-5.234,11.304
		c-0.249,0.375-0.48,0.758-0.821,1.297c9.312,7.371,19.673,10.027,31.143,7.2c11.651-2.871,19.657-10.171,24.569-21.56
		C435.291,105.724,434.741,105.724,434.192,105.724z M370.172,105.854c1.659,2.982,3.136,5.648,4.753,8.561
		c0.879-0.817,1.422-1.505,2.125-1.92c0.46-0.271,1.148-0.148,1.738-0.201c-0.015,0.592,0.195,1.346-0.093,1.744
		c-0.521,0.719-1.337,1.223-2.159,1.931c0.781,0.882,1.366,1.539,2.115,2.387c2.892-3.807,4.744-7.88,5.93-12.501
		C379.746,105.854,375.215,105.854,370.172,105.854z M444.21,108.179c1.691-0.021,3.059-0.685,4.207-2.346c-2.947,0-5.595,0-8.598,0
		C441.015,107.575,442.46,108.205,444.21,108.179z M367.875,86.028c0.464-0.063,0.842-0.771,1.255-1.191
		c-0.464-0.429-0.884-1.11-1.404-1.2c-0.379-0.063-0.891,0.657-1.66,1.291C366.904,85.469,367.435,86.089,367.875,86.028z"/>
	<path fill-rule="evenodd" clip-rule="evenodd" fill="#13235B" d="M401.918,61.974c9.567,0.102,16.596,2.861,22.562,8.323
		c0.077,0.066,0.147,0.143,0.222,0.214c0.681,0.62,1.413,1.462,2.31,0.469c0.816-0.904,0.002-1.575-0.633-2.175
		c-5.068-4.795-11.053-7.754-17.939-8.813c-14.067-2.165-27.873,4.722-34.625,17.226c-0.217,0.402-0.572,0.827-0.561,1.234
		c0.016,0.52,0.205,1.216,0.574,1.49c0.248,0.181,0.987-0.162,1.419-0.419c0.266-0.159,0.36-0.594,0.534-0.907
		C381.837,67.841,391.094,62.396,401.918,61.974z"/>
	<path fill-rule="evenodd" clip-rule="evenodd" fill="#13235B" d="M403.058,126.664c12.55-0.427,22.027-5.657,28.729-15.868
		c0.142-0.212,0.386-0.443,0.373-0.651c-0.039-0.624-0.182-1.244-0.285-1.866c-0.561,0.199-1.286,0.239-1.648,0.62
		c-0.688,0.733-1.143,1.68-1.744,2.5c-8.205,11.226-22.522,15.642-35.648,11.031c-0.895-0.313-2.078-1.191-2.643,0.202
		c-0.614,1.522,0.921,1.708,1.85,2.001c1.889,0.594,3.811,1.143,5.754,1.494C399.638,126.46,401.534,126.515,403.058,126.664z"/>
	<path fill-rule="evenodd" clip-rule="evenodd" fill="#13235B" d="M397.728,119.199c1.695-2.954,3.393-5.909,5.113-8.845
		c0.938-1.607,1.748-1.68,2.873-0.23c1.957,2.521,2.305,5.283,0.902,8.156c-1.381,2.831-3.818,4.085-6.478,4.265
		C396.861,122.517,396.331,121.639,397.728,119.199z M404.341,112.753c-0.189,0.238-0.393,0.447-0.533,0.689
		c-1.217,2.106-2.42,4.217-3.727,6.492C404.004,120.091,406.262,115.056,404.341,112.753z"/>
	<path fill-rule="evenodd" clip-rule="evenodd" fill="#13235B" d="M380.804,110.576c0.426-0.579,1.111-1.11,1.221-1.741
		c0.164-0.966-0.503-1.618-1.541-1.608c-0.957,0.013-1.611,0.606-1.455,1.532c0.111,0.644,0.713,1.205,1.095,1.803
		C380.35,110.568,380.577,110.57,380.804,110.576z"/>
</g>
</svg>
