<?xml version="1.0" encoding="utf-8"?>
<!-- Generator: Adobe Illustrator 16.2.0, SVG Export Plug-In . SVG Version: 6.00 Build 0)  -->
<!DOCTYPE svg PUBLIC "-//W3C//DTD SVG 1.1//EN" "http://www.w3.org/Graphics/SVG/1.1/DTD/svg11.dtd">
<svg version="1.1" id="Layer_1" xmlns="http://www.w3.org/2000/svg" xmlns:xlink="http://www.w3.org/1999/xlink" x="0px" y="0px"
	 width="550.371px" height="305.926px" viewBox="0 0 550.371 305.926" enable-background="new 0 0 550.371 305.926"
	 xml:space="preserve">
<g>
	<path fill="#13235B" d="M149.465,126.613v-70.98h5.517v66.4h33.098l1.977,4.58H149.465z"/>
	<path fill="#13235B" d="M413.406,127.757l-38.611-36.74v35.596h-5.518V56.047l5.518-1.456v36.426l35.074-36.532l3.537,3.23
		L381.87,91.017l35.075,33.41L413.406,127.757z"/>
	<path fill="#13235B" d="M132.297,183.895h-27.372v22.271h27.269v8.224h-27.269v33.513h-9.783v-72.229h40.799L132.297,183.895z"/>
	<path fill="#13235B" d="M145.099,247.902v-71.086l9.783-3.642v74.728H145.099z"/>
	<path fill="#13235B" d="M211.604,236.611c-1.249,2.741-2.949,5.031-5.101,6.868c-2.151,1.839-4.666,3.226-7.546,4.163
		c-2.879,0.938-5.95,1.404-9.21,1.404c-3.47,0-6.921-0.624-10.355-1.874c-3.435-1.248-7.025-3.087-10.772-5.515l3.644-8.639
		c3.121,2.082,5.984,3.815,8.585,5.204c2.604,1.39,5.187,2.08,7.756,2.08c4.3,0,7.804-1.058,10.511-3.173
		c2.706-2.116,4.059-5.187,4.059-9.211c0-2.221-0.505-4.075-1.509-5.567c-1.007-1.493-2.324-2.741-3.955-3.75
		c-1.631-1.004-3.504-1.87-5.62-2.601c-2.117-0.728-4.267-1.474-6.453-2.238c-2.185-0.761-4.318-1.594-6.4-2.497
		c-2.082-0.9-3.938-2.063-5.567-3.485c-1.631-1.423-2.951-3.176-3.956-5.258c-1.006-2.08-1.508-4.646-1.508-7.701
		c0-2.774,0.571-5.395,1.716-7.857s2.724-4.598,4.735-6.401s4.336-3.227,6.973-4.268c2.638-1.041,5.48-1.562,8.535-1.562
		c6.313,0,12.523,1.841,18.63,5.519l-3.746,8.221c-3.054-1.665-5.639-2.914-7.756-3.748c-2.116-0.83-4.318-1.248-6.607-1.248
		c-1.735,0-3.347,0.278-4.84,0.834c-1.492,0.556-2.794,1.336-3.902,2.341c-1.11,1.006-1.979,2.186-2.603,3.539
		c-0.625,1.354-0.936,2.827-0.936,4.424c0,2.774,0.866,4.927,2.601,6.452c1.734,1.526,3.904,2.811,6.506,3.851
		c2.602,1.042,5.429,2.014,8.482,2.914c3.053,0.903,5.881,2.101,8.481,3.592c2.603,1.491,4.753,3.452,6.454,5.88
		c1.698,2.43,2.55,5.689,2.55,9.783C213.479,230.695,212.853,233.87,211.604,236.611z"/>
	<path fill="#13235B" d="M277.174,247.071v-31.018h-41.319v31.018l-9.575,3.33v-74.728h9.575v32.055h41.319v-32.055h9.783v74.728
		L277.174,247.071z"/>
	<path fill="#13235B" d="M303.607,247.902v-71.086l9.783-3.642v74.728H303.607z"/>
	<path fill="#13235B" d="M388.873,247.693l-49.148-55.161v55.37h-9.89v-75.769l7.599,3.747l49.02,54.954v-55.161h9.576v75.768
		L388.873,247.693z"/>
	<path fill="#13235B" d="M462.42,247.382c-4.461,1.107-8.766,1.664-12.914,1.664c-5.604,0-10.808-0.935-15.615-2.81
		c-4.807-1.875-8.975-4.476-12.503-7.806s-6.296-7.286-8.3-11.865c-2.008-4.58-3.008-9.539-3.008-14.884
		c0-5.271,0.97-10.181,2.914-14.727c1.941-4.543,4.664-8.447,8.17-11.709c3.502-3.262,7.632-5.828,12.386-7.702
		c4.752-1.871,9.939-2.811,15.56-2.811c2.08,0,4.075,0.071,5.984,0.21c1.907,0.14,3.884,0.416,5.932,0.831
		c2.045,0.417,4.231,1.025,6.558,1.822c2.324,0.799,4.943,1.858,7.856,3.176l-3.33,8.845c-4.58-2.358-8.76-3.971-12.54-4.839
		c-3.784-0.866-7.512-1.302-11.19-1.302c-4.023,0-7.753,0.712-11.188,2.136c-3.435,1.421-6.4,3.4-8.898,5.932
		c-2.498,2.533-4.441,5.532-5.828,9.001c-1.388,3.472-2.082,7.251-2.082,11.347c0,3.607,0.588,7.112,1.77,10.511
		c1.18,3.399,2.983,6.436,5.413,9.108c2.428,2.671,5.498,4.803,9.209,6.4c3.712,1.595,8.066,2.392,13.063,2.392
		c3.47,0,6.505-0.292,9.108-0.883c2.601-0.589,5.115-1.474,7.543-2.655v-20.503l9.576-4.476v30.599
		C471.43,244.606,466.881,246.273,462.42,247.382z"/>
	<path fill-rule="evenodd" clip-rule="evenodd" fill="#13235B" d="M197.459,108.126c-1.72,0.807-3.27,1.849-4.97,2.271
		c-3.551,0.886-7.3-1.399-8.485-4.861c-0.526-1.536-0.075-2.195,1.597-2.212c2.75-0.025,5.499-0.008,8.247-0.016
		c0.554,0,1.104-0.045,1.842-0.076c-0.144-0.719-0.241-1.301-0.373-1.876c-5.098-22.402,11.115-44.219,34.013-45.767
		c16.73-1.128,31.771,8.439,37.851,24.103c0.326,0.832,0.702,1.415,1.645,1.783c2.444,0.954,3,3.771,1.369,5.825
		c-0.422,0.533-0.722,1.318-0.726,1.987c-0.017,2.593,0.155,5.186,0.168,7.782c0.013,2.257-1.302,3.738-3.271,3.861
		c-2.095,0.122-3.516-1.202-3.77-3.508c-0.016-0.145-0.071-0.289-0.135-0.535c-0.52-0.022-1.046-0.047-1.909-0.088
		c1.439-2.421,2.774-4.666,4.105-6.917c0.096,0.037,0.188,0.068,0.28,0.105c0,1.937,0.003,3.872-0.001,5.812
		c0,0.559-0.203,1.192,0.004,1.649c0.21,0.46,0.774,0.938,1.253,1.021c0.27,0.056,0.978-0.661,0.982-1.041
		c0.044-2.646-0.005-5.293-0.136-7.935c-0.019-0.421-0.505-0.966-0.919-1.191c-2.521-1.392-3.049-3.687-1.427-5.994
		c0.315-0.451,0.389-1.338,0.171-1.858c-5.419-12.907-15.009-20.7-28.948-22.312c-18.366-2.118-34.576,9.881-38.438,27.962
		c-1.091,5.114-0.778,10.203,0.261,15.3c0.3,1.472,0.891,1.952,2.418,1.947c16.193-0.057,32.384-0.034,48.575-0.034
		c5.649,0,11.305-0.006,16.957,0.002c2.015,0.004,2.412,0.554,1.786,2.389c-4.691,13.734-17.899,23.864-32.43,24.867
		c-16.138,1.116-30.275-7.163-37.23-21.792C197.669,108.468,197.487,108.175,197.459,108.126z M199.047,105.724
		c4.911,11.389,12.917,18.688,24.566,21.56c11.471,2.827,21.835,0.171,31.146-7.2c-0.342-0.539-0.573-0.922-0.822-1.297
		c-2.352-3.485-4.231-7.213-5.236-11.304c-0.351-1.438-0.991-1.794-2.396-1.79c-15.07,0.049-30.144,0.031-45.217,0.031
		C200.54,105.724,199.989,105.724,199.047,105.724z M250.7,105.854c1.186,4.621,3.039,8.694,5.93,12.501
		c0.751-0.848,1.336-1.505,2.117-2.387c-0.822-0.708-1.641-1.212-2.16-1.931c-0.289-0.398-0.08-1.152-0.094-1.744
		c0.59,0.053,1.278-0.069,1.737,0.201c0.704,0.415,1.248,1.103,2.125,1.92c1.617-2.912,3.098-5.578,4.754-8.561
		C260.068,105.854,255.536,105.854,250.7,105.854z M195.462,105.833c-3.001,0-5.647,0-8.597,0c1.147,1.661,2.518,2.324,4.208,2.346
		C192.821,108.205,194.267,107.575,195.462,105.833z M269.217,84.927c-0.771-0.634-1.283-1.354-1.662-1.291
		c-0.519,0.09-0.939,0.771-1.403,1.2c0.412,0.421,0.792,1.129,1.256,1.191C267.847,86.089,268.378,85.469,269.217,84.927z"/>
	<path fill-rule="evenodd" clip-rule="evenodd" fill="#13235B" d="M233.364,61.974c-9.569,0.102-16.598,2.861-22.563,8.323
		c-0.074,0.066-0.147,0.143-0.221,0.214c-0.683,0.62-1.412,1.462-2.312,0.469c-0.813-0.904,0-1.575,0.633-2.175
		c5.069-4.795,11.055-7.754,17.943-8.813c14.066-2.165,27.871,4.722,34.625,17.226c0.216,0.402,0.571,0.827,0.56,1.234
		c-0.017,0.52-0.205,1.216-0.576,1.49c-0.246,0.181-0.986-0.162-1.419-0.419c-0.264-0.159-0.358-0.594-0.533-0.907
		C253.444,67.841,244.188,62.396,233.364,61.974z"/>
	<path fill-rule="evenodd" clip-rule="evenodd" fill="#13235B" d="M232.225,126.664c-12.552-0.427-22.028-5.657-28.729-15.868
		c-0.141-0.212-0.386-0.443-0.372-0.651c0.037-0.624,0.182-1.244,0.284-1.866c0.562,0.199,1.287,0.239,1.649,0.62
		c0.688,0.733,1.143,1.68,1.742,2.5c8.205,11.226,22.526,15.642,35.65,11.031c0.895-0.313,2.08-1.191,2.642,0.202
		c0.615,1.522-0.921,1.708-1.849,2.001c-1.891,0.594-3.811,1.143-5.755,1.494C235.643,126.46,233.749,126.515,232.225,126.664z"/>
	<path fill-rule="evenodd" clip-rule="evenodd" fill="#13235B" d="M235.144,122.544c-2.657-0.18-5.097-1.434-6.478-4.265
		c-1.403-2.873-1.055-5.636,0.901-8.156c1.127-1.449,1.934-1.377,2.875,0.23c1.72,2.936,3.416,5.891,5.11,8.845
		C238.951,121.639,238.421,122.517,235.144,122.544z M235.2,119.935c-1.305-2.275-2.509-4.386-3.727-6.492
		c-0.14-0.242-0.345-0.451-0.535-0.689C229.019,115.056,231.276,120.091,235.2,119.935z"/>
	<path fill-rule="evenodd" clip-rule="evenodd" fill="#13235B" d="M254.479,110.576c-0.427-0.579-1.113-1.11-1.222-1.741
		c-0.167-0.966,0.504-1.618,1.54-1.608c0.957,0.013,1.611,0.606,1.455,1.532c-0.11,0.644-0.711,1.205-1.093,1.803
		C254.931,110.568,254.706,110.57,254.479,110.576z"/>
	<path fill-rule="evenodd" clip-rule="evenodd" fill="#13235B" d="M349.816,108.78c-6.953,14.629-21.095,22.908-37.232,21.792
		c-14.528-1.003-27.738-11.133-32.428-24.867c-0.627-1.835-0.227-2.385,1.787-2.389c5.651-0.008,11.305-0.002,16.954-0.002
		c16.193,0,32.383-0.022,48.574,0.034c1.529,0.005,2.119-0.476,2.421-1.947c1.039-5.097,1.351-10.186,0.256-15.3
		c-3.859-18.081-20.068-30.08-38.432-27.962c-13.942,1.611-23.529,9.404-28.949,22.312c-0.219,0.521-0.146,1.407,0.169,1.858
		c1.62,2.308,1.097,4.603-1.428,5.994c-0.413,0.226-0.898,0.771-0.919,1.191c-0.127,2.642-0.177,5.289-0.135,7.935
		c0.008,0.38,0.713,1.097,0.985,1.041c0.479-0.082,1.042-0.561,1.251-1.021c0.207-0.457,0.005-1.091,0.003-1.649
		c-0.004-1.939,0-3.875,0-5.812c0.091-0.037,0.185-0.068,0.278-0.105c1.335,2.251,2.668,4.496,4.105,6.917
		c-0.859,0.041-1.389,0.065-1.907,0.088c-0.063,0.246-0.12,0.391-0.136,0.535c-0.254,2.306-1.675,3.63-3.766,3.508
		c-1.973-0.123-3.287-1.604-3.274-3.861c0.015-2.597,0.187-5.189,0.17-7.782c-0.003-0.669-0.306-1.454-0.726-1.987
		c-1.633-2.055-1.077-4.871,1.367-5.825c0.944-0.368,1.32-0.951,1.646-1.783c6.079-15.663,21.12-25.23,37.851-24.103
		c22.896,1.548,39.111,23.364,34.012,45.767c-0.13,0.575-0.231,1.157-0.371,1.876c0.738,0.031,1.289,0.076,1.84,0.076
		c2.749,0.008,5.5-0.01,8.249,0.016c1.671,0.017,2.121,0.676,1.595,2.212c-1.184,3.462-4.934,5.747-8.485,4.861
		c-1.7-0.422-3.248-1.464-4.968-2.271C350.145,108.175,349.965,108.468,349.816,108.78z M346.543,105.724
		c-15.07,0-30.145,0.018-45.217-0.031c-1.404-0.004-2.044,0.352-2.396,1.79c-1.006,4.091-2.885,7.818-5.234,11.304
		c-0.249,0.375-0.48,0.758-0.821,1.297c9.312,7.371,19.673,10.027,31.143,7.2c11.651-2.871,19.657-10.171,24.569-21.56
		C347.642,105.724,347.092,105.724,346.543,105.724z M282.522,105.854c1.659,2.982,3.136,5.648,4.753,8.561
		c0.879-0.817,1.422-1.505,2.125-1.92c0.46-0.271,1.148-0.148,1.738-0.201c-0.015,0.592,0.195,1.346-0.093,1.744
		c-0.521,0.719-1.337,1.223-2.159,1.931c0.781,0.882,1.366,1.539,2.115,2.387c2.892-3.807,4.744-7.88,5.93-12.501
		C292.097,105.854,287.565,105.854,282.522,105.854z M356.561,108.179c1.691-0.021,3.059-0.685,4.207-2.346
		c-2.947,0-5.595,0-8.598,0C353.365,107.575,354.811,108.205,356.561,108.179z M280.226,86.028c0.464-0.063,0.842-0.771,1.255-1.191
		c-0.464-0.429-0.884-1.11-1.404-1.2c-0.379-0.063-0.891,0.657-1.66,1.291C279.255,85.469,279.785,86.089,280.226,86.028z"/>
	<path fill-rule="evenodd" clip-rule="evenodd" fill="#13235B" d="M314.269,61.974c9.567,0.102,16.596,2.861,22.562,8.323
		c0.077,0.066,0.147,0.143,0.222,0.214c0.681,0.62,1.413,1.462,2.31,0.469c0.816-0.904,0.002-1.575-0.633-2.175
		c-5.068-4.795-11.053-7.754-17.939-8.813c-14.067-2.165-27.873,4.722-34.625,17.226c-0.217,0.402-0.572,0.827-0.561,1.234
		c0.016,0.52,0.205,1.216,0.574,1.49c0.248,0.181,0.987-0.162,1.419-0.419c0.266-0.159,0.36-0.594,0.534-0.907
		C294.188,67.841,303.444,62.396,314.269,61.974z"/>
	<path fill-rule="evenodd" clip-rule="evenodd" fill="#13235B" d="M315.408,126.664c12.55-0.427,22.027-5.657,28.729-15.868
		c0.142-0.212,0.386-0.443,0.373-0.651c-0.039-0.624-0.182-1.244-0.285-1.866c-0.561,0.199-1.286,0.239-1.648,0.62
		c-0.688,0.733-1.143,1.68-1.744,2.5c-8.205,11.226-22.522,15.642-35.648,11.031c-0.895-0.313-2.078-1.191-2.643,0.202
		c-0.614,1.522,0.921,1.708,1.85,2.001c1.889,0.594,3.811,1.143,5.754,1.494C311.988,126.46,313.885,126.515,315.408,126.664z"/>
	<path fill-rule="evenodd" clip-rule="evenodd" fill="#13235B" d="M310.078,119.199c1.695-2.954,3.393-5.909,5.113-8.845
		c0.938-1.607,1.748-1.68,2.873-0.23c1.957,2.521,2.305,5.283,0.902,8.156c-1.381,2.831-3.818,4.085-6.478,4.265
		C309.212,122.517,308.682,121.639,310.078,119.199z M316.691,112.753c-0.189,0.238-0.393,0.447-0.533,0.689
		c-1.217,2.106-2.42,4.217-3.727,6.492C316.354,120.091,318.612,115.056,316.691,112.753z"/>
	<path fill-rule="evenodd" clip-rule="evenodd" fill="#13235B" d="M293.154,110.576c0.426-0.579,1.111-1.11,1.221-1.741
		c0.164-0.966-0.503-1.618-1.541-1.608c-0.957,0.013-1.611,0.606-1.455,1.532c0.111,0.644,0.713,1.205,1.095,1.803
		C292.7,110.568,292.928,110.57,293.154,110.576z"/>
	<g>
		<rect x="54.817" y="144.175" fill="#E4342D" width="440.736" height="6.247"/>
	</g>
</g>
</svg>
